<svg width="40" height="40" viewBox="0 0 40 40" fill="none" xmlns="http://www.w3.org/2000/svg">
<g clip-path="url(#clip0)">
<path d="M2.50001 2.72168C-0.643327 5.98668 6.57141e-06 9.45501 6.57141e-06 19.9917C6.57141e-06 28.7417 -1.52666 37.5133 6.46334 39.5783C8.95834 40.22 31.065 40.22 33.5567 39.575C36.8833 38.7167 39.59 36.0183 39.96 31.3133C40.0117 30.6567 40.0117 9.33834 39.9583 8.66834C39.565 3.65668 36.48 0.768345 32.415 0.183345C31.4833 0.0483445 31.2967 0.00834453 26.5167 1.11982e-05C9.56167 0.00834453 5.84501 -0.746656 2.50001 2.72168Z" fill="white"/>
<path d="M19.9967 5.23165C13.945 5.23165 8.19835 4.69331 6.00335 10.3266C5.09668 12.6533 5.22835 15.675 5.22835 20.0016C5.22835 23.7983 5.10668 27.3666 6.00335 29.675C8.19335 35.3116 13.9867 34.7716 19.9933 34.7716C25.7883 34.7716 31.7633 35.375 33.985 29.675C34.8933 27.325 34.76 24.3483 34.76 20.0016C34.76 14.2316 35.0783 10.5066 32.28 7.70998C29.4467 4.87665 25.615 5.23165 19.99 5.23165H19.9967ZM18.6733 7.89331C31.2967 7.87331 32.9033 6.46998 32.0167 25.965C31.7017 32.86 26.4517 32.1033 19.9983 32.1033C8.23168 32.1033 7.89335 31.7666 7.89335 19.995C7.89335 8.08665 8.82668 7.89998 18.6733 7.88998V7.89331ZM27.88 10.345C26.9017 10.345 26.1083 11.1383 26.1083 12.1166C26.1083 13.095 26.9017 13.8883 27.88 13.8883C28.8583 13.8883 29.6517 13.095 29.6517 12.1166C29.6517 11.1383 28.8583 10.345 27.88 10.345ZM19.9967 12.4166C15.8083 12.4166 12.4133 15.8133 12.4133 20.0016C12.4133 24.19 15.8083 27.585 19.9967 27.585C24.185 27.585 27.5783 24.19 27.5783 20.0016C27.5783 15.8133 24.185 12.4166 19.9967 12.4166ZM19.9967 15.0783C26.505 15.0783 26.5133 24.925 19.9967 24.925C13.49 24.925 13.48 15.0783 19.9967 15.0783Z" fill="#EF5730"/>
</g>
<defs>
<clipPath id="clip0">
<rect width="40" height="40" fill="white"/>
</clipPath>
</defs>
</svg>
