<svg width="40" height="40" viewBox="0 0 40 40" fill="none" xmlns="http://www.w3.org/2000/svg">
<g clip-path="url(#clip0)">
<path d="M39.1759 10.398C38.7147 8.68445 37.3637 7.33375 35.6505 6.87233C32.5203 6.0157 19.9996 6.0157 19.9996 6.0157C19.9996 6.0157 7.47922 6.0157 4.34904 6.83967C2.66875 7.30079 1.28478 8.68476 0.823666 10.398C0 13.5279 0 20.0189 0 20.0189C0 20.0189 0 26.5427 0.823666 29.6399C1.28509 31.3531 2.63579 32.7041 4.34935 33.1656C7.51218 34.0222 19.9999 34.0222 19.9999 34.0222C19.9999 34.0222 32.5203 34.0222 35.6505 33.1982C37.364 32.7371 38.7147 31.3861 39.1762 29.6728C39.9998 26.5427 39.9998 20.0519 39.9998 20.0519C39.9998 20.0519 40.0328 13.5279 39.1759 10.398Z" fill="white"/>
<path d="M16.0131 26.0157L26.4247 20.019L16.0131 14.0223V26.0157Z" fill="#EF5730"/>
</g>
<defs>
<clipPath id="clip0">
<rect width="40" height="40" fill="white"/>
</clipPath>
</defs>
</svg>
