<?xml version="1.0" encoding="iso-8859-1"?>
<!-- Generator: Adobe Illustrator 19.0.0, SVG Export Plug-In . SVG Version: 6.00 Build 0)  -->
<svg version="1.1" id="Capa_1" xmlns="http://www.w3.org/2000/svg" xmlns:xlink="http://www.w3.org/1999/xlink" x="0px" y="0px"
	 viewBox="0 0 496 496" style="enable-background:new 0 0 496 496;" xml:space="preserve">
<g>
	<g>
		<path d="M496,0h-35.312L248,212.688L35.312,0H0v35.312L212.688,248L152,308.688l-27.72-27.712
			c-5.784-5.792-13.464-8.976-21.656-8.976C85.744,272,72,285.736,72,302.632c0,8.176,3.184,15.864,8.968,21.656L108.688,352
			L40,420.688l-16-16l-10.056,10.056C4.952,423.736,0,435.688,0,448.4C0,474.648,21.352,496,47.6,496
			c12.712,0,24.664-4.952,33.656-13.944l0.656-0.656C95.208,490.776,111.232,496,128,496c42.68,0,77.568-33.632,79.784-75.768
			c9.6-5.176,16.216-15.208,16.216-26.856c0-8.176-3.184-15.864-8.968-21.656L187.312,344L248,283.312L308.688,344l-27.72,27.72
			c-5.784,5.784-8.968,13.472-8.968,21.648c0,11.648,6.616,21.68,16.216,26.856C290.432,462.368,325.32,496,368,496
			c16.768,0,32.784-5.224,46.08-14.6l0.664,0.664C423.736,491.048,435.688,496,448.4,496c26.248,0,47.6-21.352,47.6-47.6
			c0-12.712-4.952-24.664-13.944-33.656L472,404.68l-16,16L387.312,352l27.72-27.72c5.784-5.784,8.968-13.472,8.968-21.648
			C424,285.736,410.256,272,393.376,272c-8.184,0-15.872,3.184-21.656,8.976L344,308.688L283.312,248L496,35.312V0z M16,28.688V16
			h12.688l208,208L224,236.688L16,28.688z M120,363.312L132.688,376L116,392.688L103.312,380L120,363.312z M144,387.312l9.792,9.784
			C157.84,402.608,160,409.128,160,416c0,17.648-14.352,32-32,32c-11.76,0-22.424-6.488-28.008-16.68L144,387.312z M92,391.312
			L104.688,404L92,416.688L79.312,404L92,391.312z M68,415.312L80.688,428L64,444.688L51.312,432L68,415.312z M47.6,480
			C30.176,480,16,465.824,16,448.4c0-7.84,2.84-15.256,8.04-21.048l44.616,44.616C62.848,477.16,55.448,480,47.6,480z M128,480
			c-20.208,0-38.992-9.568-51.072-25.616l11.448-11.448C97.208,455.92,111.928,464,128,464c25.64,0,46.592-20.224,47.88-45.552
			c4.584,3.216,9.936,5.024,15.6,5.368C187.6,455.424,160.64,480,128,480z M203.72,383.024c2.76,2.768,4.28,6.44,4.28,10.344
			c0,8.072-6.56,14.632-14.624,14.632c-3.848,0-7.616-1.56-10.344-4.288L92.28,312.976c-2.76-2.768-4.28-6.44-4.28-10.344
			C88,294.56,94.56,288,102.624,288c3.848,0,7.616,1.56,10.344,4.28L203.72,383.024z M368,480c-32.64,0-59.6-24.576-63.472-56.184
			c5.656-0.352,11.016-2.152,15.6-5.368C321.408,443.776,342.36,464,368,464c16.072,0,30.792-8.08,39.624-21.064l11.448,11.448
			C406.992,470.432,388.208,480,368,480z M336,416c0-6.872,2.16-13.392,6.208-18.896l9.792-9.792l44.008,44.008
			C390.424,441.512,379.76,448,368,448C350.352,448,336,433.648,336,416z M471.96,427.352c5.2,5.8,8.04,13.2,8.04,21.048
			c0,17.424-14.176,31.6-31.6,31.6c-7.84,0-15.248-2.84-21.056-8.032L471.96,427.352z M444.688,432L432,444.688L415.312,428
			L428,415.312L444.688,432z M416.688,404L404,416.688L391.312,404L404,391.312L416.688,404z M392.688,380L380,392.688L363.312,376
			L376,363.312L392.688,380z M383.032,292.288c2.728-2.728,6.488-4.288,10.344-4.288c8.064,0,14.624,6.56,14.624,14.632
			c0,3.904-1.52,7.584-4.28,10.344l-90.752,90.744c-2.728,2.72-6.488,4.28-10.344,4.28C294.56,408,288,401.44,288,393.368
			c0-3.904,1.52-7.584,4.28-10.344L383.032,292.288z M332.688,320L320,332.688L259.312,272L272,259.312L332.688,320z M480,28.688
			l-304,304L163.312,320l304-304H480V28.688z"/>
	</g>
</g>
<g>
</g>
<g>
</g>
<g>
</g>
<g>
</g>
<g>
</g>
<g>
</g>
<g>
</g>
<g>
</g>
<g>
</g>
<g>
</g>
<g>
</g>
<g>
</g>
<g>
</g>
<g>
</g>
<g>
</g>
</svg>
