<?xml version="1.0"?>
<svg xmlns="http://www.w3.org/2000/svg" viewBox="0 0 512 512" width="512" height="512"><g id="outline"><path d="M443.521,426.421l-.223.119a45.676,45.676,0,0,1-33.486,3.923c.927-.441,1.849-.9,2.76-1.387l.229-.123a8,8,0,1,0-7.573-14.094l-.223.12a45.7,45.7,0,0,1-35.026,3.5l-62.837-18.972,2.312-7.659a8,8,0,0,0-1.486-7.4L292.6,365.8l28.68-73.945a44.237,44.237,0,0,0-6.191-42.794L291.218,218.14l12.281-6.585,40.356,22.674,9.348,25.586a20.08,20.08,0,0,0,18.806,13.136c.977,0,32.476-4.657,32.476-4.657l5.395,3.031,12.288,11.607a8,8,0,0,0,9.273,1.234l19.942-10.692a8,8,0,0,0,3.27-10.831L443.96,242.7a8,8,0,0,0-4.737-3.878l-7.659-2.312h0a8,8,0,0,0-3.331-9.041l-46.512-29.912-3.183-10.484,1.007.3a8,8,0,0,0,7.4-1.486L405.9,170.265l11.218,3.386a8,8,0,0,0,9.971-5.345L440,125.526a35.313,35.313,0,0,0-23.6-44.013l-16.631-5.021a35.313,35.313,0,0,0-44.013,23.6l-10.6,35.12-22.975-6.937a8.02,8.02,0,0,0-2.35-.342l-.007-.04a83.947,83.947,0,0,0-37.371,4.9l-32.527-19.707,2.544-3.362a8,8,0,0,0-12.759-9.655l-3.542,4.682-11.231-6.805a8,8,0,0,0-8.291,13.684l9.816,5.947-2.018,2.666A8,8,0,1,0,237.2,129.9l3.016-3.985,25.429,15.407a83.977,83.977,0,0,0-18.211,16.195l-2.39,2.848-58.209-32.7,2.432-3.443a8,8,0,1,0-13.069-9.231l-3.386,4.8-11.449-6.432a8,8,0,1,0-7.837,13.949l10.006,5.621-1.93,2.731a8,8,0,1,0,13.07,9.231l2.883-4.083,57.023,32.039-.138.165-10.082,8.313a42.085,42.085,0,0,0-15.231,30.379l-.078,1.621a41.807,41.807,0,0,0,14.134,33.493l25.869,22.868-34.172,75.821c-.013.029-7.3,23.951-7.3,23.951l-61.268-18.5a8,8,0,0,0-4.625,15.317l261.954,79.091a61.629,61.629,0,0,0,47.224-4.716l.229-.123a8,8,0,1,0-7.573-14.094Zm-151.7-31.541-45.952-13.874,4.625-15.318,28.316,8.55L292.9,391.319Zm-11.409-189.1-18.79-17.747,25.339,14.236Zm48.415-.284,1.491,2.781-8.966-5.038Zm43.752,51.416a4.014,4.014,0,0,1-4.352-2.583l-2.9-7.946,16.214,9.183Zm58.842-3.726,5.346,9.97-7.809,4.188-5.218-4.928,3.2-10.585ZM414.5,237.663l-4.623,15.309-53.577-30.1-19.67-36.685-6.686-38.854,21.8,6.583,15.517,51.105a8,8,0,0,0,3.327,4.4ZM375.681,127.714l-1.936,2.05-11.264,3.42,2.616-8.665Zm4.39,43.109-7.119-2.149-5.231-17.229,7.111-3.812,6.912,12.89a8,8,0,0,0,4.738,3.878l1.008.3Zm34.012-14.8-19.8-5.979-6.4-11.94,4.929-5.218,25.9,7.82Zm-43.006-51.306a19.31,19.31,0,0,1,24.071-12.907l16.63,5.02A19.313,19.313,0,0,1,424.686,120.9l-1.354,4.487L369.722,109.2ZM259.694,167.8a67.982,67.982,0,0,1,53.363-24.273l7.361,42.775a8,8,0,0,0-5.2.816L303.679,193.3l-44.437-24.966Zm-34.66,46.284.078-1.62a26.054,26.054,0,0,1,9.429-18.806l5.2-4.289,33.423,31.57,29.255,37.9a28.15,28.15,0,0,1,3.94,27.233l-27.695,71.4-22.5-6.792,28.405-63.482a8,8,0,0,0-2-9.262l-48.785-43.126A25.876,25.876,0,0,1,225.034,214.082Zm36.571,66.685,5.961,5.27-26.841,59.988-7.51-2.267Zm-38.708,93.3,4.626-15.318,7.658,2.313-4.625,15.318Z"/><path d="M125.891,280.466l-67.2-24a8,8,0,0,0-5.382,15.068l67.2,24a8,8,0,0,0,5.382-15.068Z"/><path d="M154.69,290.752a8,8,0,0,0-5.38,15.068l16,5.714a8,8,0,1,0,5.38-15.068Z"/><path d="M53.309,151.534l32,11.429A8,8,0,0,0,90.691,147.9l-32-11.429a8,8,0,0,0-5.382,15.068Z"/><path d="M109.309,171.534l56,20a8,8,0,0,0,5.382-15.068l-56-20a8,8,0,0,0-5.382,15.068Z"/><path d="M130.69,222.18l-16-5.714a8,8,0,0,0-5.38,15.068l16,5.714a8,8,0,1,0,5.38-15.068Z"/><path d="M179.2,256a8,8,0,0,0,2.691-15.536l-27.2-9.714a8,8,0,0,0-5.38,15.068l27.2,9.714A7.972,7.972,0,0,0,179.2,256Z"/></g></svg>
