<?xml version="1.0"?>
<svg xmlns="http://www.w3.org/2000/svg" viewBox="0 0 64 64" width="512" height="512"><g id="outline"><path d="M51.5,30.041A3.082,3.082,0,0,0,49,33.107v4.479l-3,3-.293-.293a3.674,3.674,0,0,0-5.347-.061l-6.018,5.016A5.885,5.885,0,0,0,32,50V61a1,1,0,0,0,1,1h9a1,1,0,0,0,1-1V55.515l6.581-4.7a1.012,1.012,0,0,0,.314-.367l5-10A1,1,0,0,0,55,40V33a3,3,0,0,0-3.5-2.959ZM53,39.764l-4.783,9.567-6.8,4.855A1,1,0,0,0,41,55v5H34V50a3.912,3.912,0,0,1,1.64-3.232l6.067-5.061a1.714,1.714,0,0,1,2.586,0l.293.293-4.293,4.293,1.414,1.414,9-9A1,1,0,0,0,51,38V33.107a1.085,1.085,0,0,1,.825-1.093,1.013,1.013,0,0,1,.822.224A1,1,0,0,1,53,33Z"/><path d="M30,46V44a22.034,22.034,0,0,1-18.175-9.566l-1.65,1.132A24.036,24.036,0,0,0,30,46Z"/><path d="M42.5,2.132,41.5,3.868A20.386,20.386,0,0,1,52,22h2A22.338,22.338,0,0,0,42.5,2.132Z"/><rect x="8.5" y="31.882" width="2" height="2.236" transform="translate(-13.755 7.732) rotate(-26.565)"/><path d="M10,22A20,20,0,1,0,30,2,20.023,20.023,0,0,0,10,22Zm2,0A17.931,17.931,0,0,1,17.843,8.765c-1.342,4.341-2.421,12.174,4.285,18.013a7.767,7.767,0,0,1-1.91.273h-.043c-4.143,0-7.3-3.369-8.14-4.363C12.026,22.458,12,22.232,12,22Zm5.645,13.056a17.985,17.985,0,0,1-5.206-9.15,12.159,12.159,0,0,0,7.735,3.145h.056c3.582-.021,7-2.013,10.155-5.924a12.757,12.757,0,0,1,6.28,3.435C35.4,29.112,30.594,36.364,17.645,35.056ZM38.023,38.09a17.83,17.83,0,0,1-17.6-.878c.088,0,.181.008.268.008,10.569,0,15.4-5.717,17.249-8.824C39.519,31.519,38.907,35.3,38.023,38.09ZM40.489,36.6a13.5,13.5,0,0,0-.942-9.453c-1.613-2.9-4.613-4.914-8.9-6.005a16.266,16.266,0,0,1-2.207-7.134c4.186.163,16.078,1.686,18.524,13.947A18.061,18.061,0,0,1,40.489,36.6ZM48,22a18.042,18.042,0,0,1-.113,1.969C43.82,13.658,32.839,12.187,28.611,12.01a7.437,7.437,0,0,1,.323-1.15c1-2.618,3.528-4.515,7.494-5.653A18.015,18.015,0,0,1,48,22ZM27.062,10.156c-1.812,4.761.713,9.97,1.719,11.751A15.974,15.974,0,0,1,24.24,25.92c-9.447-7.247-3.865-18.478-3.386-19.4A17.613,17.613,0,0,1,33.1,4.286,10.743,10.743,0,0,0,27.062,10.156Z"/></g></svg>
